<?xml version="1.0" standalone="no"?>
<!DOCTYPE svg PUBLIC "-//W3C//DTD SVG 20010904//EN"
 "http://www.w3.org/TR/2001/REC-SVG-20010904/DTD/svg10.dtd">
<svg version="1.0" xmlns="http://www.w3.org/2000/svg"
 width="127.000000pt" height="274.000000pt" viewBox="0 0 127.000000 274.000000"
 preserveAspectRatio="xMidYMid meet">
<metadata>
Created by potrace 1.15, written by Peter Selinger 2001-2017
</metadata>
<g transform="translate(0.000000,274.000000) scale(0.100000,-0.100000)"
fill="#000000" stroke="none">
<path d="M630 2631 c-113 -36 -198 -117 -239 -226 -21 -55 -21 -71 -21 -844 0
-868 -3 -823 62 -897 69 -78 177 -103 281 -64 60 23 104 64 139 130 l23 45 3
582 c2 401 -1 589 -8 603 -12 23 -61 27 -78 7 -8 -9 -12 -198 -14 -593 l-3
-580 -27 -41 c-48 -73 -138 -91 -216 -43 -65 40 -63 10 -60 864 l3 772 30 59
c89 173 326 188 437 27 l33 -47 3 -935 c2 -645 -1 -955 -8 -999 -14 -83 -47
-145 -107 -203 -141 -138 -367 -136 -499 4 -108 115 -104 78 -104 958 0 567
-3 749 -12 758 -18 18 -53 15 -71 -6 -16 -17 -17 -85 -17 -773 0 -822 -2 -797
57 -913 32 -64 116 -147 181 -180 144 -73 290 -73 434 0 67 34 158 126 192
192 54 107 54 96 60 1088 6 960 5 997 -36 1079 -24 47 -101 130 -142 152 -85
45 -185 54 -276 24z"/>
</g>
</svg>
